<?xml version="1.0" encoding="utf-8"?>
<!-- Uploaded to: SVG Repo, www.svgrepo.com, Generator: SVG Repo Mixer Tools -->
<svg width="800px" height="800px" viewBox="-20.02 0 414.587 414.587" xmlns="http://www.w3.org/2000/svg"><defs><style>.a{fill:#ffffff;}.b{fill:#211715;}.c{fill:#cfcfcf;}.d{fill:#645d5c;}</style></defs><path class="a" d="M74.665,93.069c.579-10.923,9.43-43.633,58.4-43.633,58.538,0,56.578,47.043,56.578,47.043a8.568,8.568,0,0,1,6.857-2.006,8.1,8.1,0,0,1,5.818,3.868,11.431,11.431,0,0,1,1.2,4.6,34.283,34.283,0,0,1-3.5,18.173,21.8,21.8,0,0,1-5.635,7.395,14.438,14.438,0,0,1-6.718,3.028l-1.15.178c-.551,2.063-1.171,3.8-1.475,4.724-1.817,4.934-11.4,21.148-23.8,28.8a109.306,109.306,0,0,0,.76,11.222,151.357,151.357,0,0,0,7.507,13.421c3.761,5.852-4,25.185-38.223,25.185s-46.062-18.483-37.777-25.333c7.7-6.37,9.253-13.65,9.253-13.72.38-3.555.631-7.461.716-10.619a52.719,52.719,0,0,1-13.566-11.828A58.291,58.291,0,0,1,78.8,131.874l-2.19-.335a14.447,14.447,0,0,1-6.718-3.028,21.794,21.794,0,0,1-5.634-7.395,34.284,34.284,0,0,1-3.5-18.173,11.432,11.432,0,0,1,1.2-4.6,8.091,8.091,0,0,1,5.818-3.868,8.569,8.569,0,0,1,6.857,2.006A31.678,31.678,0,0,1,74.665,93.069Z"/><path class="b" d="M191.341,98.176a6.085,6.085,0,0,1,8.535.787c1.206,1.586,1.284,3.851,1.346,5.754a30.661,30.661,0,0,1-.393,6.224c-1.309,7.59-5.339,16.839-13.8,18.284a2.419,2.419,0,0,0-1.676,2.952,2.455,2.455,0,0,0,2.952,1.676c8.53-1.456,13.618-9.419,16.045-17.088a36.039,36.039,0,0,0,1.63-12.935c-.253-4.208-1.462-8.182-5.326-10.4a11.069,11.069,0,0,0-12.708,1.352,2.421,2.421,0,0,0,0,3.394,2.449,2.449,0,0,0,3.394,0Z"/><path class="b" d="M185.18,125.159a28.791,28.791,0,0,1-1.344,7.223c-.272.918-.572,1.827-.876,2.734-.09.265-.174.533-.272.8-.028.077-.061.152-.089.229-.19.541.08-.17.007-.009a58.858,58.858,0,0,1-3.79,6.949,68.4,68.4,0,0,1-15.341,17.694,29.134,29.134,0,0,1-11.32,5.721c-3.01.69-1.736,5.319,1.276,4.629,8.541-1.96,15.688-8.121,21.32-14.561A73.337,73.337,0,0,0,186.6,138.9a37.276,37.276,0,0,0,3.38-13.737c.1-3.089-4.7-3.086-4.8,0Z"/><path class="b" d="M76.334,94.782A11.022,11.022,0,0,0,65.184,92.7c-4.127,1.632-6.2,5.09-6.726,9.378a35.01,35.01,0,0,0,6.13,24.223c2.8,3.784,6.656,6.741,11.386,7.548a2.471,2.471,0,0,0,2.953-1.676,2.42,2.42,0,0,0-1.677-2.952c-8.458-1.445-12.49-10.695-13.8-18.284a30.728,30.728,0,0,1-.393-6.223c.063-1.9.142-4.172,1.346-5.755a6.086,6.086,0,0,1,8.536-.787,2.462,2.462,0,0,0,3.394,0,2.421,2.421,0,0,0,0-3.394Z"/><path class="b" d="M74.643,124.289a68.913,68.913,0,0,0,8.633,24.094c4.968,8.172,12.184,15.556,20.7,20.03a39.843,39.843,0,0,0,14.535,4.383,2.415,2.415,0,0,0,2.4-2.4,2.454,2.454,0,0,0-2.4-2.4c-17.283-1.785-30.737-17.268-36.157-32.842a76.69,76.69,0,0,1-3.077-12.141,2.422,2.422,0,0,0-2.953-1.677,2.456,2.456,0,0,0-1.676,2.953Z"/><path class="b" d="M91.261,196.134c2.34-.954,4.884-1.557,7.092-2.808a10.809,10.809,0,0,0,5.214-7.041,77.183,77.183,0,0,0,1.425-9.113c.457-3.877.72-7.781.841-11.682.095-3.09-4.7-3.087-4.8,0a115.887,115.887,0,0,1-1.924,18.731c-.44,2.237-1.075,3.773-3.178,4.96a51.057,51.057,0,0,1-5.946,2.325,2.476,2.476,0,0,0-1.677,2.952,2.417,2.417,0,0,0,2.953,1.676Z"/><path class="b" d="M158.794,165.519a109.187,109.187,0,0,0,.837,11.584,89.216,89.216,0,0,0,1.423,9.051,10.868,10.868,0,0,0,4.532,6.725,12.672,12.672,0,0,0,2.066,1.1,6.82,6.82,0,0,0,1.346.542c.015-.014-.628-.281-.285-.119.777.367,1.569.706,2.351,1.063,1.971.9,3.932,1.823,5.913,2.7a2.476,2.476,0,0,0,3.284-.861,2.418,2.418,0,0,0-.861-3.283c-2.131-.945-4.24-1.939-6.36-2.905-2.062-.94-4.893-1.763-6.172-3.441a7.6,7.6,0,0,1-1.35-3.592c-.305-1.608-.527-3.238-.783-4.855a100.08,100.08,0,0,1-1.141-13.712c-.057-3.085-4.857-3.095-4.8,0Z"/><path class="a" d="M54.645,340.884c-5.964.126-11.261.227-11.261.227-12.382.152-37.1-.672-40.089-2.1-1.644-.493-.724-4.841.165-8.1,2.957-10.822,9.1-39.357,10.684-45.817,2.456-10.028,8.916-38.94,11.089-47.277,1.324-5.076,4.153-12.863,8.159-17.61a30.8,30.8,0,0,1,4.252-2.905c2.573-2.03,5.919-3.412,8.794-4.975,14.785-8.041,27.733-14.822,44.1-21.773a48.043,48.043,0,0,1,10.647-15.284A93.13,93.13,0,0,0,128.055,194c.556.252,1.177.561,1.356,1.145h4.821c.18-.584.8-.893,1.356-1.145a93.134,93.134,0,0,0,26.875-18.729,46.617,46.617,0,0,1,9.763,13.436c18.51,7.611,32.425,14.87,48.515,23.621a81.371,81.371,0,0,1,7.406,3.942l1.97,1.072a30.784,30.784,0,0,1,4.178,2.866c4.007,4.747,6.835,12.534,8.159,17.61,2.174,8.337,5.611,22.909,9.152,37.967a118.539,118.539,0,0,1,4.88,14.034l10.356,17.12-21.13,55.049-11.5-3.136c-4.406-3.832-8.955-9.327-10.474-12.016-2.395-4.239-7.915-15.9-9.322-22.938L213,320.838c-.824,6.516-1.448,11.941-1.635,15.043-.525,8.7.868,42.217,1.775,50.887a45.8,45.8,0,0,1,.234,5.467l-145.081-1.4"/><path class="b" d="M93.249,186.832a488.614,488.614,0,0,0-45.086,21.831c-4.144,2.241-8.6,4.122-12.338,7.025a2.413,2.413,0,0,0,0,3.394,2.462,2.462,0,0,0,3.395,0c3.03-2.357,6.835-3.819,10.2-5.642q5.345-2.9,10.721-5.732c6.972-3.658,14.016-7.177,21.17-10.467q6.554-3.014,13.218-5.781a2.479,2.479,0,0,0,1.676-2.952,2.415,2.415,0,0,0-2.952-1.676Z"/><path class="b" d="M172.655,191.46a470.751,470.751,0,0,1,42.97,20.823c1.957,1.057,3.894,2.153,5.891,3.133a33.7,33.7,0,0,1,5.961,3.309,2.48,2.48,0,0,0,3.394,0,2.416,2.416,0,0,0,0-3.394c-3.308-2.568-7.217-4.155-10.88-6.141q-5.34-2.9-10.715-5.725c-7.106-3.727-14.29-7.306-21.586-10.647q-6.822-3.123-13.759-5.986a2.415,2.415,0,0,0-2.952,1.676,2.461,2.461,0,0,0,1.676,2.952Z"/><path class="b" d="M228.906,219.415a13.572,13.572,0,0,1,4.14,3.04,34.354,34.354,0,0,1,3.865,6.749,78.555,78.555,0,0,1,4.333,13.585c1.392,5.556,2.724,11.127,4.05,16.7q1.182,4.974,2.353,9.949.6,2.523,1.188,5.046a14.35,14.35,0,0,0,.7,2.513c.2.453.294.646.351.786a88.856,88.856,0,0,1,4.288,12.675c.726,3,5.356,1.73,4.629-1.276a92.494,92.494,0,0,0-3.9-11.706c-.351-.9-.891-1.814-1.145-2.738-.424-1.542-.706-3.3-1.085-4.9q-1.21-5.139-2.428-10.276c-1.39-5.856-2.787-11.711-4.245-17.55a91.422,91.422,0,0,0-4.544-14.33,37.96,37.96,0,0,0-4.792-8.333,17.376,17.376,0,0,0-5.332-4.075c-2.7-1.509-5.122,2.636-2.423,4.145Z"/><path class="b" d="M36.359,215.27a18.159,18.159,0,0,0-4.889,3.513,32.945,32.945,0,0,0-4.674,7.641,71.983,71.983,0,0,0-4.465,13.086c-2.117,8.575-4.05,17.2-6.031,25.8Q10.917,288.7,5.554,312.092c-1.119,4.871-2.246,9.741-3.469,14.586-.549,2.177-1.21,4.337-1.648,6.54-.579,2.911-1.135,6.749,2.22,8.107a2.415,2.415,0,0,0,2.952-1.676A2.459,2.459,0,0,0,3.933,336.7l.879.67c.089.279.091.276,0-.009.106-.373-.024.06-.029-.413a9.671,9.671,0,0,1,.082-1.35,31.134,31.134,0,0,1,.906-4.045q.645-2.4,1.243-4.811c1.038-4.183,2.016-8.381,2.983-12.581,1.9-8.276,3.726-16.572,5.62-24.85,3.494-15.27,7.012-30.544,10.671-45.775a90.168,90.168,0,0,1,3.659-12.388,39.437,39.437,0,0,1,4.2-8.005,12.156,12.156,0,0,1,4.631-3.725c2.7-1.508.28-5.655-2.422-4.145Z"/><path class="b" d="M212.1,324.536c1.4,6.827,4.5,13.454,7.562,19.673a40.743,40.743,0,0,0,4.123,6.923,65.367,65.367,0,0,0,8.728,9.417c2.314,2.031,5.722-1.351,3.395-3.394a60.789,60.789,0,0,1-8.189-8.721,39.37,39.37,0,0,1-3.913-6.648c-2.892-5.867-5.753-12.087-7.078-18.526-.622-3.023-5.25-1.744-4.628,1.276Z"/><path class="b" d="M232.358,329.7c4.792-6.48,9.7-13.108,16.718-17.346,2.642-1.594.232-5.747-2.422-4.144-7.764,4.687-13.137,11.9-18.44,19.068a2.416,2.416,0,0,0,.861,3.283,2.455,2.455,0,0,0,3.283-.861Z"/><path class="b" d="M6.089,324.316c9.36.905,18.823,1.341,28.219,1.608,2.51.071,5.026.13,7.535.033,3.079-.119,3.095-4.92,0-4.8-4.934.191-9.9-.085-14.828-.318q-8.12-.386-16.23-.962c-1.566-.11-3.134-.21-4.7-.361a2.417,2.417,0,0,0-2.4,2.4,2.452,2.452,0,0,0,2.4,2.4Z"/><path class="a" d="M109.85,216.056c-7.6-10.364-11.66-17.755-18.035-28.132a45.984,45.984,0,0,1,9.366-12.653A93.13,93.13,0,0,0,128.055,194c.556.252,1.177.561,1.356,1.145a2.156,2.156,0,0,1-.31,1.517C128.752,197.384,112.39,212.929,109.85,216.056Z"/><path class="a" d="M153.793,216.056c7.6-10.364,11.66-17.755,18.035-28.132a45.98,45.98,0,0,0-9.365-12.653A93.134,93.134,0,0,1,135.588,194c-.556.252-1.176.561-1.356,1.145a2.157,2.157,0,0,0,.311,1.517C134.891,197.384,151.254,212.929,153.793,216.056Z"/><path class="b" d="M111.922,214.845c-6.594-9.014-12.2-18.625-18.034-28.132v2.423a44.6,44.6,0,0,1,8.99-12.168H99.484a94.505,94.505,0,0,0,13.832,11.44q3.585,2.448,7.384,4.563,1.841,1.023,3.729,1.957c.64.316,2.712,1,2.91,1.428l-.328-1.211c.074.575.083.125.273-.021a3.561,3.561,0,0,0-.36.4c-.394.421-.8.828-1.209,1.236-1.375,1.38-2.767,2.742-4.158,4.106-3.327,3.263-6.671,6.512-9.946,9.827-1.177,1.192-2.394,2.374-3.458,3.671a2.469,2.469,0,0,0,0,3.394,2.418,2.418,0,0,0,3.394,0,85.484,85.484,0,0,1,5.98-6.2c2.788-2.768,5.6-5.51,8.4-8.263a44.9,44.9,0,0,0,5.009-5.108,4.455,4.455,0,0,0,.786-3.679c-.479-1.74-2.1-2.4-3.571-3.094a88.285,88.285,0,0,1-8.192-4.425,89.64,89.64,0,0,1-17.084-13.414,2.444,2.444,0,0,0-3.394,0,46.448,46.448,0,0,0-8.127,10.237c-.563.944-1.147,1.906-1.614,2.9-.653,1.394-.01,2.4.726,3.607q1.706,2.792,3.389,5.6c4.395,7.285,8.893,14.48,13.92,21.351a2.47,2.47,0,0,0,3.283.861A2.417,2.417,0,0,0,111.922,214.845Z"/><path class="b" d="M155.866,217.267c5.027-6.871,9.525-14.066,13.919-21.351q1.689-2.8,3.39-5.6c.746-1.221,1.394-2.179.725-3.607-.467-1-1.051-1.958-1.614-2.9a46.443,46.443,0,0,0-8.126-10.237,2.441,2.441,0,0,0-3.394,0,89.03,89.03,0,0,1-15.238,12.262,91.335,91.335,0,0,1-8.178,4.669c-2.664,1.341-6.633,2.57-5.289,6.428.754,2.166,3.156,3.9,4.73,5.454,2.79,2.748,5.6,5.481,8.382,8.235a96.641,96.641,0,0,1,6.923,7.131,2.417,2.417,0,0,0,3.394,0,2.454,2.454,0,0,0,0-3.394,104.279,104.279,0,0,0-7.6-7.8c-3.151-3.11-6.334-6.188-9.469-9.313-.525-.522-1.05-1.044-1.561-1.58-.149-.156-.287-.332-.445-.478s-.34-.548.224.3c-.1-.149-.028-.2-.009-.347l-.327,1.211c.176-.384,2.136-1.048,2.723-1.336q1.887-.927,3.729-1.945,3.894-2.151,7.571-4.667a94.61,94.61,0,0,0,13.832-11.44h-3.394a44.619,44.619,0,0,1,8.99,12.168v-2.423c-5.835,9.507-11.44,19.118-18.035,28.132a2.416,2.416,0,0,0,.861,3.283A2.455,2.455,0,0,0,155.866,217.267Z"/><path class="a" d="M201.588,255.687H171.406c0,2.7.048,9.823.048,13.076,5.038,0,26.343.06,30.134.06C201.588,264.325,201.552,256.225,201.588,255.687Z"/><path class="b" d="M201.588,253.287H171.406a2.434,2.434,0,0,0-2.4,2.4c0,4.359.047,8.718.048,13.076a2.435,2.435,0,0,0,2.4,2.4c10.045,0,20.09.059,30.134.06a2.433,2.433,0,0,0,2.4-2.4c0-4.363-.222-8.778,0-13.136.158-3.088-4.643-3.079-4.8,0-.222,4.358,0,8.773,0,13.136l2.4-2.4c-10.044,0-20.089-.059-30.134-.06l2.4,2.4c0-4.358-.047-8.717-.048-13.076l-2.4,2.4h30.182C204.677,258.087,204.682,253.287,201.588,253.287Z"/><path class="b" d="M219.467,238.406c-1.049,9.547-1.405,19.175-2.28,28.74-1.257,13.74-3.131,27.406-4.943,41.08-.78,5.882-1.561,11.765-2.266,17.657-.442,3.7-.931,7.419-1.065,11.145-.315,8.711.132,17.484.476,26.187.209,5.29.454,10.58.775,15.865.258,4.258.767,8.508.746,12.774-.016,3.09,4.784,3.093,4.8,0,.019-3.794-.414-7.554-.657-11.339-.29-4.521-.512-9.047-.709-13.574-.4-9.25-.8-18.533-.68-27.794.114-8.778,1.624-17.576,2.765-26.262,1.779-13.541,3.709-27.068,5.071-40.659.686-6.846,1.239-13.7,1.73-20.564.316-4.418.553-8.852,1.037-13.256a2.415,2.415,0,0,0-2.4-2.4,2.456,2.456,0,0,0-2.4,2.4Z"/><path class="b" d="M41.532,239.229c1.379,11.568,2.2,23.2,3.523,34.779,1.73,15.161,3.708,30.292,5.379,45.46.642,5.829,1.342,11.67,1.7,17.525.189,3.069,4.99,3.09,4.8,0-.753-12.245-2.456-24.473-3.9-36.649-1.811-15.23-3.74-30.44-5.2-45.71-.49-5.134-.892-10.283-1.5-15.4a2.475,2.475,0,0,0-2.4-2.4,2.415,2.415,0,0,0-2.4,2.4Z"/><path class="b" d="M69.75,394.513q28.2,0,56.4.041,31.571.033,63.142.066,12.043.01,24.087.015c3.088,0,3.094-4.8,0-4.8q-25.086,0-50.172-.042-32.446-.035-64.892-.065-14.28-.012-28.561-.015c-3.089,0-3.094,4.8,0,4.8Z"/><path class="b" d="M129.439,196.359c0,15.694-.141,31.389-.227,47.083q-.058,10.958-.12,21.916c-.017,3.089,4.783,3.093,4.8,0q.173-31.091.325-62.181c.01-2.273.022-4.545.022-6.818,0-3.089-4.8-3.094-4.8,0Z"/><path class="a" d="M305.305,220.383c4.645-1.048,21.039-3.871,24.028-4.551,2.862-.651,4.852-2.281,7.459-3.506,5.039-2.367,10.665-5.958,16.126-7.036,1.487-.294,3.083.552,3.981.431,2.562-1.652,7.858-1.346,10.8-.545,10.517,4.859-.165,19.438-6.3,24.183-4.23,3.272-10.456,8.378-15.076,11.186-5,3.036-9.581,5.726-16.08,7.634-6.146,1.805-14.2,3.88-20.015,6.647-3.518,2.445-7.555,4.877-9.7,11.905-4.066,21.1-7.908,61.594-11.882,75.015-3.917,13.229-5.349,23.411-17.566,31.069-6.652,4.17-12.711,6.013-19.949,2.181-9.718-5.145-13.3-15.066-11.563-24.567A103.221,103.221,0,0,1,247,327.375c6.528-13.454,25.015-64.908,31.1-78.5,1.761-3.729,4.256-7.494,5.255-9.85,1.293-3.051.424-8.19,1.338-11.35,2.088-7.212,4.575-11.263,9.179-16.821a181.045,181.045,0,0,1,15.429-16.14c2.464-2.334,4.942-3.909,8.022-1.81,3.426,2.335,2.16,5.474.669,8.977-2.779,6.524-9.583,11.923-11.75,17.517"/><path class="b" d="M298.21,266.093c-3.573,18.609-5.374,37.53-8.236,56.254a180.3,180.3,0,0,1-4.574,21.976c-2.494,8.825-4.773,17.8-12.088,23.946-3.906,3.286-9.239,6.475-14.5,6.42-5.138-.053-10.226-3.388-13.278-7.386a20.3,20.3,0,0,1-3.994-12.622c.078-5.434,1.929-10.99,3.616-16.1,2.244-6.8,5.465-13.2,8.182-19.815,3.011-7.334,5.86-14.735,8.7-22.137,5.619-14.642,10.955-29.419,16.993-43.9.076-.183.408-.968.164-.4q.161-.378.322-.756.321-.745.652-1.487a2.476,2.476,0,0,0-.861-3.284,2.419,2.419,0,0,0-3.284.861c-2.6,5.828-4.871,11.814-7.172,17.766-3.206,8.295-6.354,16.612-9.529,24.919-3.044,7.966-6.093,15.932-9.277,23.843q-.963,2.392-1.949,4.775c-.542,1.3-.881,2.112-1.564,3.673-1.474,3.365-3.089,6.651-4.392,10.093a96.477,96.477,0,0,0-4.9,17.056,26.859,26.859,0,0,0,1.595,15.458A24.431,24.431,0,0,0,249.4,376.788a20.054,20.054,0,0,0,9.027,2.692,20.513,20.513,0,0,0,8.859-1.913,35.314,35.314,0,0,0,13.4-9.963,40.333,40.333,0,0,0,6.517-12.473,159.445,159.445,0,0,0,6.124-23.677c3.4-19.331,5.23-38.9,8.471-58.262q.487-2.918,1.04-5.823a2.462,2.462,0,0,0-1.676-2.952,2.422,2.422,0,0,0-2.952,1.676Z"/><path class="b" d="M280.174,250.089c1.5-3.141,3.451-6.046,4.951-9.185,1.432-3,1.37-6.18,1.5-9.431.232-5.9,3.421-11.7,6.889-16.332a139.064,139.064,0,0,1,15.159-16.5,32.249,32.249,0,0,1,3.859-3.517c1.061-.731,2.028-1.071,3.2-.384,2.395,1.4,1.055,3.964.114,6.108-2.92,6.656-9.2,11.157-11.916,17.919a2.415,2.415,0,0,0,1.676,2.952,2.457,2.457,0,0,0,2.952-1.676c1.146-2.851,3.366-5.294,5.273-7.653a42.528,42.528,0,0,0,6.085-8.948c1.385-3.07,2.963-6.739,1.17-9.982a7.64,7.64,0,0,0-10.025-3.043,18.851,18.851,0,0,0-4.384,3.489q-2.208,2.1-4.377,4.252c-3.013,3-5.934,6.089-8.7,9.317a68.84,68.84,0,0,0-6.635,8.773,42.632,42.632,0,0,0-4.156,9.382,21.92,21.92,0,0,0-.985,5.847,32.252,32.252,0,0,1-.354,5.516,16.815,16.815,0,0,1-2.119,4.519c-1.15,2.03-2.312,4.052-3.321,6.158a2.465,2.465,0,0,0,.861,3.284,2.422,2.422,0,0,0,3.284-.861Z"/><path class="b" d="M305.943,222.7c7.89-1.767,15.946-2.74,23.833-4.508,3.239-.726,6.021-2.713,8.969-4.146,3.136-1.525,6.163-3.276,9.361-4.672a30.3,30.3,0,0,1,4.65-1.593c1.426-.364,2.706.406,4.143.342a6.033,6.033,0,0,0,1.93-.692,7.961,7.961,0,0,1,1.581-.39,17.138,17.138,0,0,1,4.553.032c2.094.265,3.531,1.024,4.37,2.639.333.642-.1-.39.122.294.073.225.131.451.189.681.009.037.109.788.06.3.025.242.033.487.035.73a8.236,8.236,0,0,1-.508,2.958c-1.272,4.11-4.238,8.023-7.371,11.086a70.108,70.108,0,0,1-5.878,4.813c-2.482,1.949-4.974,3.888-7.556,5.705a67.549,67.549,0,0,1-16.675,8.9c-7.221,2.465-14.7,3.986-21.7,7.1a23.485,23.485,0,0,0-6.562,4.758,21.748,21.748,0,0,0-5.274,9.053c-.932,2.953,3.7,4.216,4.628,1.276a17.229,17.229,0,0,1,5.96-8.609,19.654,19.654,0,0,1,4.165-2.55c2.078-.884,4.226-1.615,6.374-2.307,4.463-1.438,9.039-2.524,13.481-4.019a65.2,65.2,0,0,0,12.355-5.846,107.465,107.465,0,0,0,10.86-7.465,110.106,110.106,0,0,0,8.941-7.145c4.59-4.376,9.424-10.85,9.562-17.462a9.453,9.453,0,0,0-5.623-8.863,16.3,16.3,0,0,0-6.578-.975,13.015,13.015,0,0,0-6.647,1.52l1.211-.327a26.7,26.7,0,0,1-2.756-.46,10.548,10.548,0,0,0-3.867.614,45.362,45.362,0,0,0-6.989,2.875c-2.152,1.056-4.256,2.207-6.4,3.273-2.08,1.032-4.081,2.293-6.2,3.238-2.178.973-4.774,1.217-7.1,1.646-3.3.61-6.609,1.2-9.912,1.813-3.006.554-6.022,1.081-9.005,1.749-3.013.675-1.738,5.3,1.276,4.629Z"/><path class="b" d="M320.732,229.785c-8.205,1.339-16.861,1.226-23.469,7.033a2.4,2.4,0,0,0,3.394,3.394c5.722-5.028,14.268-4.642,21.351-5.8a2.418,2.418,0,0,0,1.677-2.952,2.458,2.458,0,0,0-2.953-1.676Z"/><path class="b" d="M352.554,208.146a42.031,42.031,0,0,1-9.594,6.989,65.743,65.743,0,0,1-10.566,4.8,2.458,2.458,0,0,0-1.676,2.952,2.422,2.422,0,0,0,2.952,1.676,72.822,72.822,0,0,0,11.712-5.286,46.647,46.647,0,0,0,10.566-7.74c2.166-2.206-1.225-5.6-3.394-3.394Z"/><path class="b" d="M359.59,213.341a20.2,20.2,0,0,1-4.481,3.853c-2.27,1.584-4.64,3.025-7.04,4.4q-3.465,1.989-7.035,3.786c-.937.472-1.88.933-2.832,1.374-.349.162-.7.315-1.052.475-.562.257.373-.145-.038.018-.152.06-.3.122-.454.18a2.47,2.47,0,0,0-1.676,2.953,2.418,2.418,0,0,0,2.952,1.676,91.778,91.778,0,0,0,12.557-6.317c2.479-1.422,4.927-2.912,7.265-4.559a25.826,25.826,0,0,0,5.229-4.447,2.471,2.471,0,0,0,0-3.394,2.42,2.42,0,0,0-3.4,0Z"/><path class="c" d="M121.472,264.958c-43.386,0-73.375,33.6-73.375,72.924,0,45.519,28.382,74.293,73.378,74.293,46.042,0,73.378-28.774,73.378-74.293C194.853,298.293,164.706,264.958,121.472,264.958Z"/><path class="b" d="M121.472,262.558A76.906,76.906,0,0,0,74.39,278.223a74.42,74.42,0,0,0-25.777,38.463c-4.391,15.527-3.811,32.817.829,48.229A68.284,68.284,0,0,0,73.617,400.2c12.175,9.119,27.289,13.406,42.335,14.225,15.735.856,32.092-1.647,46.053-9.234a64.488,64.488,0,0,0,27.916-30.3,81.628,81.628,0,0,0,6.256-21.911,93.128,93.128,0,0,0,.471-24.745,75.754,75.754,0,0,0-19.919-42.679A74.151,74.151,0,0,0,134.6,263.606a85.518,85.518,0,0,0-13.129-1.048c-3.089-.007-3.093,4.793,0,4.8,15.836.034,31.517,4.811,44.11,14.555a69.551,69.551,0,0,1,24.157,36.107c4.108,14.629,3.535,30.822-.678,45.372-3.687,12.733-10.945,24.414-21.408,32.439-11.347,8.7-25.386,12.845-39.567,13.739-14.876.939-30.349-1.17-43.57-8.155a61.153,61.153,0,0,1-26.939-28.489c-6.261-13.407-8.3-29.426-6.539-44.142a69.118,69.118,0,0,1,58.371-60.515,77.317,77.317,0,0,1,12.063-.911C124.56,267.351,124.566,262.551,121.472,262.558Z"/><path class="b" d="M177.022,330.769c-3.307-22.55-21.452-42.294-43.8-47.078a54.328,54.328,0,0,0-29.125,1.79,61.86,61.86,0,0,0-26.4,18.537c-8.2,9.591-13.471,21.453-13.467,34.2,0,3.088,4.8,3.093,4.8,0,0-10.276,3.782-19.922,9.884-28.1a58.389,58.389,0,0,1,23.638-18.931,49.576,49.576,0,0,1,26.44-3.407,50.174,50.174,0,0,1,25.249,11.7,53.7,53.7,0,0,1,18.156,32.567,2.417,2.417,0,0,0,2.953,1.677,2.463,2.463,0,0,0,1.676-2.953Z"/><path class="a" d="M44.915,337.5v8.226c6.654,3.024,50.74,11.312,63.818,14.369,11.241,2.628,31.485,1.623,34.48,1.21h0c2.351-.649,4.652-.478,6.632-1.835a22.675,22.675,0,0,0,5.111-5.4,24.347,24.347,0,0,1,11.3-8.853c4-1.381,9.072-1.283,13.32-1.533,3.3-.194,11.207.145,12.1,4.525,1.341,6.581-7,6.8-10.88,8.194l-6.311,2.811c6.543,2.594,22.134,8.157,25.336,9.134,8.845,2.7,10.58,14.839-.559,14.472.105,2.443-.028,5.652-1.961,7.173-1.957,1.54-4.106,3.017-5.586,5.17-.811,1.178-1.162,3.364-2,4.612-2.083,3.1-6.735,3.508-7.073,4.008-1.374,2.03-4.37,7.762-7.762,8.035a25.976,25.976,0,0,1-8.146-.577c-5.86-1.578-9.838-2.912-14.338-7-2.4-2.183-5.531-5.782-8.228-7.51a27.536,27.536,0,0,0-9.693-3.248c-2.5-.453-81.588-9.074-98.828-12.7-8.221-1.731-14.29-2.243-23.117-5.825-7.091-2.878-10.889-13.835-8.533-24.283.776-3.442,1.7-7.034,2.634-10.614l.969-3.467Z"/><path class="b" d="M143.852,363.617c1.333-.343,2.7-.466,4.042-.772a10.58,10.58,0,0,0,4.31-2.166c2.173-1.735,3.665-4.011,5.4-6.143,3.461-4.252,7.883-7.244,13.4-7.938,2.838-.358,5.719-.379,8.573-.519a28.356,28.356,0,0,1,4.649.141,15.834,15.834,0,0,1,2.6.581,6.594,6.594,0,0,1,1.867.929,3.844,3.844,0,0,1,.409.418c.248.3-.216-.432.091.17.218.428.077.155.042.062a3.365,3.365,0,0,1,.18.765,2.579,2.579,0,0,1-.229,1.427,2.739,2.739,0,0,1-1.338,1.175,9.087,9.087,0,0,1-2.313.9c-1.779.527-3.626.823-5.379,1.435a2.459,2.459,0,0,0-1.676,2.952,2.421,2.421,0,0,0,2.952,1.676c3.617-1.262,7.939-1.393,10.792-4.276a7.253,7.253,0,0,0,1.82-6.567,7.031,7.031,0,0,0-4.116-4.975c-4.281-2.016-9.078-1.658-13.664-1.464a43.666,43.666,0,0,0-9.5,1.117,23.126,23.126,0,0,0-8.4,4.439c-2.756,2.209-4.642,5.016-6.9,7.676a10.916,10.916,0,0,1-3.707,3.226c-1.62.67-3.5.667-5.186,1.1-2.989.768-1.722,5.4,1.277,4.628Z"/><path class="b" d="M171.294,360.461c6.575,2.875,13.438,5.172,20.2,7.565,2.554.9,5.11,1.8,7.688,2.632a7.638,7.638,0,0,1,5.437,5.794c-.1-.568.008.073.01.176,0,.2.009.4.009.6,0,.016-.057.658-.008.271.043-.342-.087.373-.106.444-.034.125-.075.246-.115.369-.117.36.16-.266-.159.3-.063.112-.136.22-.207.328.287-.438-.023.035-.121.13a3.864,3.864,0,0,1-1.564.975,8.474,8.474,0,0,1-3.1.367,2.423,2.423,0,0,0-2.4,2.4,12.88,12.88,0,0,1-.246,3.8c-.345,1.3-1.237,1.854-2.265,2.652-2.571,1.994-4.717,4.071-5.823,7.2a5.736,5.736,0,0,1-1.575,2.814,7.89,7.89,0,0,1-2.575,1.342c-.691.237-1.405.41-2.088.67a4.974,4.974,0,0,0-2.445,2.412c-1.115,1.78-2.317,3.877-3.962,5.133-.926.707-1.272.631-2.6.662a22.134,22.134,0,0,1-5.171-.393c-5.7-1.232-10.843-3.449-15.056-7.542-2.458-2.388-4.774-5.045-7.682-6.909a27.7,27.7,0,0,0-10.266-3.49,2.471,2.471,0,0,0-2.952,1.676,2.419,2.419,0,0,0,1.676,2.952,24.42,24.42,0,0,1,9.12,3.007c2.644,1.695,4.724,4.256,6.975,6.415a34.385,34.385,0,0,0,16.909,8.52,27.192,27.192,0,0,0,5.192.566,12.233,12.233,0,0,0,4.736-.509c2.713-1.088,4.569-3.6,6.134-5.96.324-.488.636-.984.947-1.481.133-.212.784-.96.758-1.2.024.225-.718.723-.921.721a2.145,2.145,0,0,0,.459-.151c.506-.144,1.011-.3,1.51-.473,2.672-.918,5.356-2.43,6.584-5.109.651-1.421.912-3.028,1.921-4.253a25.354,25.354,0,0,1,4.215-3.713c2.947-2.284,3.42-5.83,3.287-9.355l-2.4,2.4c4.2.092,8.776-1.619,9.915-6.089.971-3.807-.872-7.883-3.76-10.366-2.594-2.228-5.893-3.009-9.05-4.1q-5.985-2.073-11.929-4.258-3.274-1.2-6.535-2.431c-.9-.344-1.8-.69-2.7-1.046-.336-.133-.67-.269-1.005-.4-.145-.059-.29-.12-.434-.18.689.286.1.043-.043-.021a2.478,2.478,0,0,0-3.284.861,2.417,2.417,0,0,0,.861,3.283Z"/><path class="b" d="M4.313,339.411c-1.224,4.68-2.668,9.418-3.227,14.234a28.962,28.962,0,0,0,1.146,12.13A19.758,19.758,0,0,0,7.951,374.9c3.186,2.675,7.563,3.853,11.505,4.938,6.008,1.655,12.247,2.7,18.381,3.794,3.84.687,7.7,1.255,11.564,1.807,10.994,1.571,22.016,2.946,33.039,4.292q16.572,2.022,33.158,3.924c6.116.708,12.23,1.444,18.347,2.146-.318-.037-.644-.1-.112-.011a2.469,2.469,0,0,0,2.953-1.676,2.42,2.42,0,0,0-1.677-2.952c-5.042-.894-10.235-1.235-15.318-1.822q-15.585-1.8-31.163-3.66-8.609-1.035-17.211-2.115-4.094-.517-8.186-1.049-1.988-.26-3.975-.524l-1-.133c-.285-.039-.036-.005.018,0l-.492-.066q-.969-.13-1.939-.264c-8.657-1.183-17.2-2.677-25.785-4.281A99.122,99.122,0,0,1,18.332,374.5c-3.339-1.056-6.616-2.05-8.83-4.863a19.333,19.333,0,0,1-3.633-9.551c-.516-4.277.285-8.287,1.3-12.423.569-2.331,1.171-4.654,1.778-6.975.782-2.991-3.847-4.267-4.629-1.276Z"/><path class="b" d="M143.213,358.9c-2.29.305-4.634.35-6.94.428-4.114.138-8.235.153-12.349.013a86.737,86.737,0,0,1-12.4-1.124c-2.607-.47-5.187-1.132-7.778-1.685-14.121-3.015-28.3-5.743-42.389-8.914-3.3-.742-6.593-1.5-9.863-2.359-1.16-.3-2.319-.619-3.466-.972-.459-.141-.917-.287-1.37-.447-.171-.061-.34-.128-.511-.188-.68-.24.442.2-.018,0a2.476,2.476,0,0,0-3.284.861A2.418,2.418,0,0,0,43.7,347.8c4.25,1.905,9.052,2.77,13.563,3.813,7.285,1.684,14.606,3.213,21.928,4.731,7.088,1.47,14.185,2.905,21.268,4.4,2.5.527,5,1.065,7.486,1.635a75.639,75.639,0,0,0,12.31,1.6c4.766.288,9.548.325,14.32.207a80.83,80.83,0,0,0,8.634-.477,2.48,2.48,0,0,0,2.4-2.4c0-1.164-1.1-2.573-2.4-2.4Z"/><path class="b" d="M2.084,341.083a16.452,16.452,0,0,0,4.969,1.051c2.586.3,5.188.476,7.787.631,6.642.4,13.3.6,19.951.705,3.336.053,6.673.08,10.01.041,3.087-.036,3.095-4.836,0-4.8A336.836,336.836,0,0,1,8.619,337.5c-.587-.056-1.173-.117-1.759-.188-.237-.028-.828-.111-.263-.03-.24-.035-.481-.069-.72-.108-.371-.06-.742-.124-1.107-.212-.3-.073-1.175-.436-.264-.022a2.472,2.472,0,0,0-3.283.861,2.417,2.417,0,0,0,.861,3.283Z"/><path class="d" d="M70.015,39.093C79.6,23.308,94.5,11.387,111.236,6.562,139.191-1.5,175.182.3,193.186,28.7c9.434,14.881,11.5,33,5.492,54.394,1.686,2.717.5,7.156-2.018,9.043-3.5,2.619-10.716.5-14.32-.523-19.051-5.413-34-5.023-53.621-4.107-10.989.514-20.93,1.428-30.373,4.128-4.4,1.257-26.042,8.732-26.439-1.1L70.386,87.7c-17.09-1.122-7.438-35.38-2.913-44.089Q68.672,41.3,70.015,39.093Z"/><path class="b" d="M70.386,85.3c-.183-.014-.365-.029-.547-.049-.415-.044.556.116-.1-.02-.267-.055-.533-.1-.8-.175-.316-.083-.624-.186-.931-.3-.42-.152-.028-.012.048.024-.168-.079-.336-.16-.5-.248-.27-.144-.523-.309-.78-.474-.1-.065-.2-.14-.293-.212.419.317.149.114.064.037-.222-.2-.443-.4-.65-.621-.125-.133-.67-.817-.325-.35a11.106,11.106,0,0,1-.89-1.422q-.225-.426-.416-.871c.218.506-.131-.382-.186-.543a18.128,18.128,0,0,1-.5-1.8q-.118-.528-.212-1.063c-.025-.145-.048-.291-.072-.437-.118-.726.051.487-.036-.252-.764-6.448.285-12.449,1.808-18.632A85.188,85.188,0,0,1,67.583,49.5q.3-.839.623-1.668c.1-.257.2-.513.306-.769a3.085,3.085,0,0,1,.19-.454c.557-1.263,1.2-2.48,1.866-3.687a75.454,75.454,0,0,1,18.448-22A66.513,66.513,0,0,1,113.4,8.449a101.306,101.306,0,0,1,24.031-3.617c16.188-.414,33.038,3.576,45.175,14.841a53.174,53.174,0,0,1,14.331,22.582,63.452,63.452,0,0,1,1.827,29.36c-.454,2.854-1.058,5.68-1.768,8.481-.759,2.995,3.869,4.273,4.629,1.276,2.792-11.023,3.813-22.541,1.638-33.767a58.965,58.965,0,0,0-12.791-26.632C178.775,7.074,160.989.748,143.219.066a102.515,102.515,0,0,0-26.112,2.521A74.832,74.832,0,0,0,90.645,13.753,79.285,79.285,0,0,0,69.351,35.647,64.273,64.273,0,0,0,61.2,53.728c-1.836,6.514-3.19,13.442-2.938,20.238.211,5.662,1.788,12.41,7.46,15A13.358,13.358,0,0,0,70.386,90.1a2.421,2.421,0,0,0,2.4-2.4,2.447,2.447,0,0,0-2.4-2.4Z"/><path class="b" d="M72.7,88.669A108.946,108.946,0,0,1,92.751,77.731,100.355,100.355,0,0,1,122.4,71.215a222.611,222.611,0,0,1,32.615-.154A105.794,105.794,0,0,1,175.9,74.432c1.4.392,2.8.826,4.169,1.317q.912.326,1.811.686c.216.087.91.384.341.137.288.125.576.251.862.381a26.391,26.391,0,0,1,4.83,2.774,2.416,2.416,0,0,0,3.284-.861,2.457,2.457,0,0,0-.861-3.283,37.18,37.18,0,0,0-11.173-5.192,102.246,102.246,0,0,0-20.823-3.849,214.115,214.115,0,0,0-31.855-.379c-10.883.588-21.716,2.157-32.022,5.816a110.576,110.576,0,0,0-24.19,12.545c-2.559,1.7-.159,5.864,2.422,4.145Z"/><path class="b" d="M69.507,90.533c.471,8.381,10.417,7.786,16.405,6.774,7.17-1.211,13.967-3.907,21.116-5.234a147.373,147.373,0,0,1,18.806-2.021c6.44-.354,12.9-.634,19.346-.684A129.062,129.062,0,0,1,181.238,93.8c4.874,1.365,10.789,3.278,15.664.982,5.036-2.373,6.793-10.456,2.638-14.37-2.248-2.117-5.649,1.271-3.394,3.395,1.181,1.112,1.126,2.931.477,4.5a3.933,3.933,0,0,1-3.257,2.61c-4.162.679-8.706-1.19-12.692-2.242a132.058,132.058,0,0,0-33.782-4.106c-5.9,0-11.8.249-17.7.523-6.089.283-12.168.7-18.211,1.525a92.021,92.021,0,0,0-14.17,2.976c-2.582.779-5.165,1.552-7.788,2.183a34.636,34.636,0,0,1-10.445,1.343c-.183-.01-1.283-.12-.757-.046a10.634,10.634,0,0,1-1.09-.209,9.914,9.914,0,0,1-.994-.306c.574.208-.292-.168-.457-.257a3.153,3.153,0,0,1-.352-.233c.507.357.067.057-.02-.049-.065-.08-.152-.162-.225-.237-.232-.242.045.364-.059-.111a1.953,1.953,0,0,0-.2-.368c.272.535.03.073,0-.077-.025-.117-.059-.238-.089-.354-.092-.36.007.356-.032-.331-.172-3.071-4.973-3.091-4.8,0Z"/><path class="b" d="M154.578,36.811c8.6-.752,19.257.175,25.58,6.757,2.144,2.232,5.536-1.165,3.394-3.394-7.2-7.493-19.1-9.027-28.974-8.163a2.463,2.463,0,0,0-2.4,2.4,2.417,2.417,0,0,0,2.4,2.4Z"/><path class="b" d="M122.242,142.336a22.491,22.491,0,0,0,10.828,2.5c3.833-.025,7.757-.758,10.833-3.155a2.413,2.413,0,0,0,0-3.394,2.46,2.46,0,0,0-3.394,0c.7-.544.053-.057-.126.058q-.333.213-.684.4c-.143.075-.92.417-.365.193-.31.125-.625.241-.944.343a16.981,16.981,0,0,1-5.676.759,17.72,17.72,0,0,1-5.417-.73c-.346-.1-.683-.226-1.024-.344-.112-.038-.219-.088-.33-.128.6.22.092.041-.024-.014-.424-.2-.841-.408-1.255-.626a2.452,2.452,0,0,0-3.283.861,2.426,2.426,0,0,0,.861,3.284Z"/><path class="b" d="M132.067,116.546a52.181,52.181,0,0,1,1.222,5.592l-.086-.638a3.324,3.324,0,0,1,.021.772l.086-.638a1.813,1.813,0,0,1-.085.347l.242-.573a1.462,1.462,0,0,1-.122.223l.375-.486a1.154,1.154,0,0,1-.183.18l.486-.375a3.677,3.677,0,0,1-.443.235l.573-.242a3.224,3.224,0,0,1-.746.217l.638-.085a2.935,2.935,0,0,1-.7,0l.638.086c-.264-.037-.524-.1-.788-.137a2.655,2.655,0,0,0-1.849.242,2.4,2.4,0,0,0-.861,3.284,2.3,2.3,0,0,0,1.434,1.1c.56.075,1.1.219,1.673.244a5.265,5.265,0,0,0,2.412-.566,3.38,3.38,0,0,0,1.9-2.24,5.8,5.8,0,0,0-.026-2.465c-.305-1.8-.721-3.587-1.185-5.354a2.4,2.4,0,1,0-4.628,1.276Z"/><path class="b" d="M102.046,100.832c-.934,3.035-.325,10.017,5.424,10.611,7.6-.046,8-8.486,5.446-12.455C110.821,95.738,104.663,94.387,102.046,100.832Z"/><path class="b" d="M162.9,100.832c.934,3.035.325,10.017-5.424,10.611-7.6-.046-8-8.487-5.446-12.455C154.125,95.738,160.284,94.387,162.9,100.832Z"/></svg>